{
  "accessors": [
    {
      "bufferView": 2,
      "componentType": 5126,
      "count": 2242,
      "max": [
        529.8452758789063,
        1587.7796630859375,
        124.91400146484375
      ],
      "min": [
        -532.695068359375,
        1116.072021484375,
        -142.96766662597656
      ],
      "type": "VEC3"
    },
    {
      "bufferView": 2,
      "byteOffset": 26904,
      "componentType": 5126,
      "count": 2242,
      "max": [
        0.9925897717475891,
        0.9262822866439819,
        0.9998371601104736
      ],
      "min": [
        -0.9920517206192017,
        -0.9934827089309692,
        -0.9998359680175781
      ],
      "type": "VEC3"
    },
    {
      "bufferView": 3,
      "componentType": 5126,
      "count": 2242,
      "max": [
        0.9999993443489075,
        0.8176375031471252,
        0.9974706172943115,
        1.0
      ],
      "min": [
        -0.9999657869338989,
        -0.8445128202438354,
        -0.9998216032981873,
        1.0
      ],
      "type": "VEC4"
    },
    {
      "bufferView": 1,
      "componentType": 5126,
      "count": 2242,
      "max": [
        0.996002197265625,
        0.992033839225769
      ],
      "min": [
        0.014495395123958588,
        0.013442039489746094
      ],
      "type": "VEC2"
    },
    {
      "bufferView": 0,
      "componentType": 5125,
      "count": 12174,
      "type": "SCALAR"
    }
  ],
  "asset": {
    "extras": {
      "author": "Ngchipv (https://sketchfab.com/ngchipv)",
      "license": "CC-BY-4.0 (http://creativecommons.org/licenses/by/4.0/)",
      "source": "https://sketchfab.com/3d-models/belly-button-long-sleeve-shirt-ngchipv-a3954e1745c8407dbc8aa62434545796",
      "title": "Belly Button Long Sleeve Shirt - Ngchipv"
    },
    "generator": "Sketchfab-15.12.0",
    "version": "2.0"
  },
  "bufferViews": [
    {
      "buffer": 0,
      "byteLength": 48696,
      "name": "floatBufferViews",
      "target": 34963
    },
    {
      "buffer": 0,
      "byteLength": 17936,
      "byteOffset": 48696,
      "byteStride": 8,
      "name": "floatBufferViews",
      "target": 34962
    },
    {
      "buffer": 0,
      "byteLength": 53808,
      "byteOffset": 66632,
      "byteStride": 12,
      "name": "floatBufferViews",
      "target": 34962
    },
    {
      "buffer": 0,
      "byteLength": 35872,
      "byteOffset": 120440,
      "byteStride": 16,
      "name": "floatBufferViews",
      "target": 34962
    }
  ],
  "buffers": [
    {
      "byteLength": 156312,
      "uri": "scene.bin"
    }
  ],
  "images": [
    {
      "uri": "textures/M_Croptop_baseColor.png"
    },
    {
      "uri": "textures/M_Croptop_metallicRoughness.png"
    },
    {
      "uri": "textures/M_Croptop_normal.png"
    }
  ],
  "materials": [
    {
      "doubleSided": true,
      "name": "M_Croptop",
      "normalTexture": {
        "index": 2
      },
      "occlusionTexture": {
        "index": 1
      },
      "pbrMetallicRoughness": {
        "baseColorTexture": {
          "index": 0
        },
        "metallicRoughnessTexture": {
          "index": 1
        }
      }
    }
  ],
  "meshes": [
    {
      "name": "BellyButtonLongSleeveShirt_M_Croptop_0",
      "primitives": [
        {
          "attributes": {
            "NORMAL": 1,
            "POSITION": 0,
            "TANGENT": 2,
            "TEXCOORD_0": 3
          },
          "indices": 4,
          "material": 0,
          "mode": 4
        }
      ]
    }
  ],
  "nodes": [
    {
      "children": [
        1
      ],
      "matrix": [
        1.0,
        0.0,
        0.0,
        0.0,
        0.0,
        2.220446049250313e-16,
        -1.0,
        0.0,
        0.0,
        1.0,
        2.220446049250313e-16,
        0.0,
        0.0,
        0.0,
        0.0,
        1.0
      ],
      "name": "Sketchfab_model"
    },
    {
      "children": [
        2
      ],
      "matrix": [
        0.009999999776482582,
        0.0,
        0.0,
        0.0,
        0.0,
        0.0,
        0.009999999776482582,
        0.0,
        0.0,
        -0.009999999776482582,
        0.0,
        0.0,
        0.0,
        0.0,
        0.0,
        1.0
      ],
      "name": "f72b46499a8c4abb8f8b1b1af4ea4401.fbx"
    },
    {
      "children": [
        3
      ],
      "name": "RootNode"
    },
    {
      "children": [
        4
      ],
      "name": "BellyButtonLongSleeveShirt"
    },
    {
      "mesh": 0,
      "name": "BellyButtonLongSleeveShirt_M_Croptop_0"
    }
  ],
  "samplers": [
    {
      "magFilter": 9729,
      "minFilter": 9987,
      "wrapS": 10497,
      "wrapT": 10497
    }
  ],
  "scene": 0,
  "scenes": [
    {
      "name": "Sketchfab_Scene",
      "nodes": [
        0
      ]
    }
  ],
  "textures": [
    {
      "sampler": 0,
      "source": 0
    },
    {
      "sampler": 0,
      "source": 1
    },
    {
      "sampler": 0,
      "source": 2
    }
  ]
}
