{
  "accessors": [
    {
      "bufferView": 2,
      "componentType": 5126,
      "count": 2624,
      "max": [
        0.05083705484867096,
        0.03449095040559769,
        0.005075765773653984
      ],
      "min": [
        -0.05083705484867096,
        -0.03137703984975815,
        -0.005075765773653984
      ],
      "type": "VEC3"
    },
    {
      "bufferView": 2,
      "byteOffset": 31488,
      "componentType": 5126,
      "count": 2624,
      "max": [
        1.0,
        1.0,
        1.0
      ],
      "min": [
        -1.0,
        -1.0,
        -1.0
      ],
      "type": "VEC3"
    },
    {
      "bufferView": 3,
      "componentType": 5126,
      "count": 2624,
      "max": [
        1.0,
        1.0,
        1.0,
        1.0
      ],
      "min": [
        -1.0,
        -1.0,
        -1.0,
        -1.0
      ],
      "type": "VEC4"
    },
    {
      "bufferView": 1,
      "componentType": 5126,
      "count": 2624,
      "max": [
        0.9982690215110779,
        0.9974470138549805
      ],
      "min": [
        0.0016210000030696392,
        0.008104000240564346
      ],
      "type": "VEC2"
    },
    {
      "bufferView": 0,
      "componentType": 5125,
      "count": 6642,
      "type": "SCALAR"
    },
    {
      "bufferView": 2,
      "byteOffset": 62976,
      "componentType": 5126,
      "count": 2624,
      "max": [
        0.05083705484867096,
        0.03449095040559769,
        0.005075765773653984
      ],
      "min": [
        -0.05083705484867096,
        -0.03137703984975815,
        -0.005075765773653984
      ],
      "type": "VEC3"
    },
    {
      "bufferView": 2,
      "byteOffset": 94464,
      "componentType": 5126,
      "count": 2624,
      "max": [
        1.0,
        1.0,
        1.0
      ],
      "min": [
        -1.0,
        -1.0,
        -1.0
      ],
      "type": "VEC3"
    },
    {
      "bufferView": 3,
      "byteOffset": 41984,
      "componentType": 5126,
      "count": 2624,
      "max": [
        1.0,
        1.0,
        1.0,
        1.0
      ],
      "min": [
        -1.0,
        -1.0,
        -1.0,
        -1.0
      ],
      "type": "VEC4"
    },
    {
      "bufferView": 1,
      "byteOffset": 20992,
      "componentType": 5126,
      "count": 2624,
      "max": [
        0.9982510209083557,
        0.9977080225944519
      ],
      "min": [
        0.0016210000030696392,
        0.0016210000030696392
      ],
      "type": "VEC2"
    },
    {
      "bufferView": 0,
      "byteOffset": 26568,
      "componentType": 5125,
      "count": 6642,
      "type": "SCALAR"
    },
    {
      "bufferView": 2,
      "byteOffset": 125952,
      "componentType": 5126,
      "count": 2624,
      "max": [
        0.05083705484867096,
        0.03449095040559769,
        0.005075765773653984
      ],
      "min": [
        -0.05083705484867096,
        -0.03137703984975815,
        -0.005075765773653984
      ],
      "type": "VEC3"
    },
    {
      "bufferView": 2,
      "byteOffset": 157440,
      "componentType": 5126,
      "count": 2624,
      "max": [
        1.0,
        1.0,
        1.0
      ],
      "min": [
        -1.0,
        -1.0,
        -1.0
      ],
      "type": "VEC3"
    },
    {
      "bufferView": 3,
      "byteOffset": 83968,
      "componentType": 5126,
      "count": 2624,
      "max": [
        1.0,
        1.0,
        1.0,
        1.0
      ],
      "min": [
        -1.0,
        -1.0,
        -1.0,
        -1.0
      ],
      "type": "VEC4"
    },
    {
      "bufferView": 1,
      "byteOffset": 41984,
      "componentType": 5126,
      "count": 2624,
      "max": [
        0.9982540011405945,
        0.9946079850196838
      ],
      "min": [
        0.0016210000030696392,
        0.0016210000030696392
      ],
      "type": "VEC2"
    },
    {
      "bufferView": 0,
      "byteOffset": 53136,
      "componentType": 5125,
      "count": 6642,
      "type": "SCALAR"
    },
    {
      "bufferView": 2,
      "byteOffset": 188928,
      "componentType": 5126,
      "count": 3784,
      "max": [
        0.05083705484867096,
        0.03449095040559769,
        0.005075765773653984
      ],
      "min": [
        -0.05083705484867096,
        -0.03137703984975815,
        -0.005075765773653984
      ],
      "type": "VEC3"
    },
    {
      "bufferView": 2,
      "byteOffset": 234336,
      "componentType": 5126,
      "count": 3784,
      "max": [
        1.0,
        1.0,
        1.0
      ],
      "min": [
        -1.0,
        -1.0,
        -1.0
      ],
      "type": "VEC3"
    },
    {
      "bufferView": 3,
      "byteOffset": 125952,
      "componentType": 5126,
      "count": 3784,
      "max": [
        1.0,
        1.0,
        1.0,
        1.0
      ],
      "min": [
        -1.0,
        -1.0,
        -1.0,
        -1.0
      ],
      "type": "VEC4"
    },
    {
      "bufferView": 1,
      "byteOffset": 62976,
      "componentType": 5126,
      "count": 3784,
      "max": [
        0.999442994594574,
        0.9987310171127319
      ],
      "min": [
        0.000526999996509403,
        0.000526999996509403
      ],
      "type": "VEC2"
    },
    {
      "bufferView": 0,
      "byteOffset": 79704,
      "componentType": 5125,
      "count": 9954,
      "type": "SCALAR"
    },
    {
      "bufferView": 2,
      "byteOffset": 279744,
      "componentType": 5126,
      "count": 3784,
      "max": [
        0.05083705484867096,
        0.03449095040559769,
        0.005075765773653984
      ],
      "min": [
        -0.05083705484867096,
        -0.03137703984975815,
        -0.005075765773653984
      ],
      "type": "VEC3"
    },
    {
      "bufferView": 2,
      "byteOffset": 325152,
      "componentType": 5126,
      "count": 3784,
      "max": [
        1.0,
        1.0,
        1.0
      ],
      "min": [
        -1.0,
        -1.0,
        -1.0
      ],
      "type": "VEC3"
    },
    {
      "bufferView": 3,
      "byteOffset": 186496,
      "componentType": 5126,
      "count": 3784,
      "max": [
        1.0,
        1.0,
        1.0,
        1.0
      ],
      "min": [
        -1.0,
        -1.0,
        -1.0,
        -1.0
      ],
      "type": "VEC4"
    },
    {
      "bufferView": 1,
      "byteOffset": 93248,
      "componentType": 5126,
      "count": 3784,
      "max": [
        0.999442994594574,
        0.9987310171127319
      ],
      "min": [
        0.000526999996509403,
        0.000526999996509403
      ],
      "type": "VEC2"
    },
    {
      "bufferView": 0,
      "byteOffset": 119520,
      "componentType": 5125,
      "count": 9954,
      "type": "SCALAR"
    },
    {
      "bufferView": 2,
      "byteOffset": 370560,
      "componentType": 5126,
      "count": 3784,
      "max": [
        0.05083705484867096,
        0.03449095040559769,
        0.005075765773653984
      ],
      "min": [
        -0.05083705484867096,
        -0.03137703984975815,
        -0.005075765773653984
      ],
      "type": "VEC3"
    },
    {
      "bufferView": 2,
      "byteOffset": 415968,
      "componentType": 5126,
      "count": 3784,
      "max": [
        1.0,
        1.0,
        1.0
      ],
      "min": [
        -1.0,
        -1.0,
        -1.0
      ],
      "type": "VEC3"
    },
    {
      "bufferView": 3,
      "byteOffset": 247040,
      "componentType": 5126,
      "count": 3784,
      "max": [
        1.0,
        1.0,
        1.0,
        1.0
      ],
      "min": [
        -1.0,
        -1.0,
        -1.0,
        -1.0
      ],
      "type": "VEC4"
    },
    {
      "bufferView": 1,
      "byteOffset": 123520,
      "componentType": 5126,
      "count": 3784,
      "max": [
        0.9994710087776184,
        0.9987310171127319
      ],
      "min": [
        0.000526999996509403,
        0.000526999996509403
      ],
      "type": "VEC2"
    },
    {
      "bufferView": 0,
      "byteOffset": 159336,
      "componentType": 5125,
      "count": 9954,
      "type": "SCALAR"
    }
  ],
  "asset": {
    "extras": {
      "author": "Zian (https://sketchfab.com/zian_0912)",
      "license": "CC-BY-4.0 (http://creativecommons.org/licenses/by/4.0/)",
      "source": "https://sketchfab.com/3d-models/cassette-tape-d12bc8517ecb470f87862e1c24250d91",
      "title": "Cassette Tape"
    },
    "generator": "Sketchfab-15.12.0",
    "version": "2.0"
  },
  "bufferViews": [
    {
      "buffer": 0,
      "byteLength": 199152,
      "name": "floatBufferViews",
      "target": 34963
    },
    {
      "buffer": 0,
      "byteLength": 153792,
      "byteOffset": 199152,
      "byteStride": 8,
      "name": "floatBufferViews",
      "target": 34962
    },
    {
      "buffer": 0,
      "byteLength": 461376,
      "byteOffset": 352944,
      "byteStride": 12,
      "name": "floatBufferViews",
      "target": 34962
    },
    {
      "buffer": 0,
      "byteLength": 307584,
      "byteOffset": 814320,
      "byteStride": 16,
      "name": "floatBufferViews",
      "target": 34962
    }
  ],
  "buffers": [
    {
      "byteLength": 1121904,
      "uri": "scene.bin"
    }
  ],
  "extensionsUsed": [
    "KHR_materials_transmission"
  ],
  "images": [
    {
      "uri": "textures/CassetteTape_01a_baseColor.png"
    },
    {
      "uri": "textures/CassetteTape_01a_metallicRoughness.png"
    },
    {
      "uri": "textures/CassetteTape_01a_normal.png"
    },
    {
      "uri": "textures/CassetteTape_02a_baseColor.png"
    },
    {
      "uri": "textures/CassetteTape_02a_metallicRoughness.png"
    },
    {
      "uri": "textures/CassetteTape_02a_normal.png"
    },
    {
      "uri": "textures/CassetteTape_02a_transmission.png"
    }
  ],
  "materials": [
    {
      "doubleSided": true,
      "name": "CassetteTape_01a",
      "normalTexture": {
        "index": 2
      },
      "occlusionTexture": {
        "index": 1
      },
      "pbrMetallicRoughness": {
        "baseColorTexture": {
          "index": 0
        },
        "metallicRoughnessTexture": {
          "index": 1
        }
      }
    },
    {
      "alphaMode": "BLEND",
      "doubleSided": true,
      "extensions": {
        "KHR_materials_transmission": {
          "transmissionFactor": 1.0,
          "transmissionTexture": {
            "index": 6
          }
        }
      },
      "name": "CassetteTape_02a",
      "normalTexture": {
        "index": 5
      },
      "occlusionTexture": {
        "index": 4
      },
      "pbrMetallicRoughness": {
        "baseColorTexture": {
          "index": 3
        },
        "metallicRoughnessTexture": {
          "index": 4
        }
      }
    }
  ],
  "meshes": [
    {
      "name": "CassetteTape_Main_low_01_3_CassetteTape_01a_0",
      "primitives": [
        {
          "attributes": {
            "NORMAL": 1,
            "POSITION": 0,
            "TANGENT": 2,
            "TEXCOORD_0": 3
          },
          "indices": 4,
          "material": 0,
          "mode": 4
        }
      ]
    },
    {
      "name": "CassetteTape_Main_low_01_2_CassetteTape_01a_0",
      "primitives": [
        {
          "attributes": {
            "NORMAL": 6,
            "POSITION": 5,
            "TANGENT": 7,
            "TEXCOORD_0": 8
          },
          "indices": 9,
          "material": 0,
          "mode": 4
        }
      ]
    },
    {
      "name": "CassetteTape_Main_low_01_1_CassetteTape_01a_0",
      "primitives": [
        {
          "attributes": {
            "NORMAL": 11,
            "POSITION": 10,
            "TANGENT": 12,
            "TEXCOORD_0": 13
          },
          "indices": 14,
          "material": 0,
          "mode": 4
        }
      ]
    },
    {
      "name": "CassetteTape_Main_low_02_1_CassetteTape_02a_0",
      "primitives": [
        {
          "attributes": {
            "NORMAL": 16,
            "POSITION": 15,
            "TANGENT": 17,
            "TEXCOORD_0": 18
          },
          "indices": 19,
          "material": 1,
          "mode": 4
        }
      ]
    },
    {
      "name": "CassetteTape_Main_low_02_2_CassetteTape_02a_0",
      "primitives": [
        {
          "attributes": {
            "NORMAL": 21,
            "POSITION": 20,
            "TANGENT": 22,
            "TEXCOORD_0": 23
          },
          "indices": 24,
          "material": 1,
          "mode": 4
        }
      ]
    },
    {
      "name": "CassetteTape_Main_low_02_3_CassetteTape_02a_0",
      "primitives": [
        {
          "attributes": {
            "NORMAL": 26,
            "POSITION": 25,
            "TANGENT": 27,
            "TEXCOORD_0": 28
          },
          "indices": 29,
          "material": 1,
          "mode": 4
        }
      ]
    }
  ],
  "nodes": [
    {
      "children": [
        1
      ],
      "matrix": [
        1.0,
        0.0,
        0.0,
        0.0,
        0.0,
        2.220446049250313e-16,
        -1.0,
        0.0,
        0.0,
        1.0,
        2.220446049250313e-16,
        0.0,
        0.0,
        0.0,
        0.0,
        1.0
      ],
      "name": "Sketchfab_model"
    },
    {
      "children": [
        2
      ],
      "matrix": [
        0.009999999776482582,
        0.0,
        0.0,
        0.0,
        0.0,
        0.0,
        0.009999999776482582,
        0.0,
        0.0,
        -0.009999999776482582,
        0.0,
        0.0,
        0.0,
        0.0,
        0.0,
        1.0
      ],
      "name": "8799b146837249349f9d7f812c523bef.fbx"
    },
    {
      "children": [
        3,
        5,
        7,
        9,
        11,
        13
      ],
      "name": "RootNode"
    },
    {
      "children": [
        4
      ],
      "matrix": [
        100.0,
        0.0,
        0.0,
        0.0,
        0.0,
        -1.629206793918314e-05,
        -99.99999999999868,
        0.0,
        0.0,
        99.99999999999868,
        -1.629206793918314e-05,
        0.0,
        12.203136444091797,
        0.4969842731952667,
        -4.015831470489502,
        1.0
      ],
      "name": "CassetteTape_Main_low_01_3"
    },
    {
      "mesh": 0,
      "name": "CassetteTape_Main_low_01_3_CassetteTape_01a_0"
    },
    {
      "children": [
        6
      ],
      "matrix": [
        100.0,
        0.0,
        0.0,
        0.0,
        -0.0,
        -1.629206793918314e-05,
        -99.99999999999868,
        0.0,
        0.0,
        99.99999999999868,
        -1.629206793918314e-05,
        0.0,
        -0.21300911903381348,
        0.4969842731952667,
        -4.015831470489502,
        1.0
      ],
      "name": "CassetteTape_Main_low_01_2"
    },
    {
      "mesh": 1,
      "name": "CassetteTape_Main_low_01_2_CassetteTape_01a_0"
    },
    {
      "children": [
        8
      ],
      "matrix": [
        100.0,
        0.0,
        0.0,
        0.0,
        -0.0,
        -1.629206793918314e-05,
        -99.99999999999868,
        0.0,
        0.0,
        99.99999999999868,
        -1.629206793918314e-05,
        0.0,
        -12.537860870361328,
        0.4969842731952667,
        -4.015831470489502,
        1.0
      ],
      "name": "CassetteTape_Main_low_01_1"
    },
    {
      "mesh": 2,
      "name": "CassetteTape_Main_low_01_1_CassetteTape_01a_0"
    },
    {
      "children": [
        10
      ],
      "matrix": [
        100.0,
        0.0,
        0.0,
        0.0,
        -0.0,
        -1.629206793918314e-05,
        -99.99999999999868,
        0.0,
        0.0,
        99.99999999999868,
        -1.629206793918314e-05,
        0.0,
        -12.588611602783203,
        0.4969842731952667,
        4.272056579589844,
        1.0
      ],
      "name": "CassetteTape_Main_low_02_1"
    },
    {
      "mesh": 3,
      "name": "CassetteTape_Main_low_02_1_CassetteTape_02a_0"
    },
    {
      "children": [
        12
      ],
      "matrix": [
        100.0,
        0.0,
        0.0,
        0.0,
        0.0,
        -1.629206793918314e-05,
        -99.99999999999868,
        0.0,
        0.0,
        99.99999999999868,
        -1.629206793918314e-05,
        0.0,
        0.02311915159225464,
        0.4969842731952667,
        4.2617621421813965,
        1.0
      ],
      "name": "CassetteTape_Main_low_02_2"
    },
    {
      "mesh": 4,
      "name": "CassetteTape_Main_low_02_2_CassetteTape_02a_0"
    },
    {
      "children": [
        14
      ],
      "matrix": [
        100.0,
        0.0,
        0.0,
        0.0,
        0.0,
        -1.629206793918314e-05,
        -99.99999999999868,
        0.0,
        0.0,
        99.99999999999868,
        -1.629206793918314e-05,
        0.0,
        12.262497901916504,
        0.4969842731952667,
        4.275668621063232,
        1.0
      ],
      "name": "CassetteTape_Main_low_02_3"
    },
    {
      "mesh": 5,
      "name": "CassetteTape_Main_low_02_3_CassetteTape_02a_0"
    }
  ],
  "samplers": [
    {
      "magFilter": 9729,
      "minFilter": 9987,
      "wrapS": 10497,
      "wrapT": 10497
    }
  ],
  "scene": 0,
  "scenes": [
    {
      "name": "Sketchfab_Scene",
      "nodes": [
        0
      ]
    }
  ],
  "textures": [
    {
      "sampler": 0,
      "source": 0
    },
    {
      "sampler": 0,
      "source": 1
    },
    {
      "sampler": 0,
      "source": 2
    },
    {
      "sampler": 0,
      "source": 3
    },
    {
      "sampler": 0,
      "source": 4
    },
    {
      "sampler": 0,
      "source": 5
    },
    {
      "sampler": 0,
      "source": 6
    }
  ]
}
